<?xml version="1.0" encoding="iso-8859-1"?>
<!-- Generator: Adobe Illustrator 19.0.0, SVG Export Plug-In . SVG Version: 6.00 Build 0)  -->
<svg version="1.1" id="Layer_1" xmlns="http://www.w3.org/2000/svg" xmlns:xlink="http://www.w3.org/1999/xlink" x="0px" y="0px"
	 viewBox="0 0 512 512" style="enable-background:new 0 0 512 512;" xml:space="preserve">
<g>
	<g>
		<path d="M343.415,224.781c-29.063,0-57.147,13.874-58.328,14.466l16.754,33.507c0.21-0.105,21.58-10.51,41.574-10.51
			c20.07,0,41.4,10.425,41.613,10.53l16.715-33.527C400.561,238.654,372.478,224.781,343.415,224.781z"  fill="#FFD93B" />
	</g>
</g>
<g>
	<g>
		<path d="M168.585,224.781c-29.063,0-57.147,13.874-58.328,14.466l16.754,33.507c0.21-0.105,21.58-10.51,41.574-10.51
			c20.07,0,41.4,10.425,41.613,10.53l16.715-33.527C225.732,238.654,197.648,224.781,168.585,224.781z" fill="#FFD93B" />
	</g>
</g>
<g>
	<g>
		<path d="M256,325.162c-17.361,0-33.521,4.95-46.734,14.316c-15.074,10.685-26.328,26.799-33.452,47.894l35.495,11.986
			c8.346-24.717,22.965-36.732,44.69-36.733c21.796,0,36.805,12.276,44.611,36.488l35.656-11.497
			C323.469,347.927,294.214,325.162,256,325.162z" fill="#FFD93B" />
	</g>
</g>
<g>
	<g>
		<path d="M82.687,107.661l-26.492-26.49l-26.49,26.49c-14.629,14.629-14.631,38.351,0.001,52.981
			c14.629,14.631,38.351,14.631,52.981,0.001C97.316,146.012,97.317,122.292,82.687,107.661z" fill="#FFD93B" />
	</g>
</g>
<g>
	<g>
		<path d="M256,0C192.533,0,134.396,23.225,89.615,61.61l19.562,19.561c2.364,2.364,4.514,4.858,6.496,7.442
			C153.665,56.71,202.623,37.463,256,37.463c120.501,0,218.537,98.035,218.537,218.537S376.501,474.537,256,474.537
			S37.463,376.501,37.463,256c0-16.531,1.856-32.637,5.351-48.127c-12.74-2.285-24.613-7.82-34.625-16.205
			C2.848,212.232,0,233.789,0,256c0,141.158,114.84,256,256,256s256-114.842,256-256S397.16,0,256,0z" fill="#FFD93B" />
	</g>
</g>
<g>
</g>
<g>
</g>
<g>
</g>
<g>
</g>
<g>
</g>
<g>
</g>
<g>
</g>
<g>
</g>
<g>
</g>
<g>
</g>
<g>
</g>
<g>
</g>
<g>
</g>
<g>
</g>
<g>
</g>
</svg>
