<?xml version="1.0" encoding="iso-8859-1"?>
<!-- Generator: Adobe Illustrator 18.1.1, SVG Export Plug-In . SVG Version: 6.00 Build 0)  -->
<svg xmlns="http://www.w3.org/2000/svg" xmlns:xlink="http://www.w3.org/1999/xlink" version="1.1" id="Capa_1" x="0px" y="0px" viewBox="0 0 358.777 358.777" style="enable-background:new 0 0 358.777 358.777;" xml:space="preserve" width="512px" height="512px">
<g>
	<path d="M154.132,311.873c0,10.144,8.224,18.368,18.368,18.368c10.138,0,18.368-8.224,18.368-18.368   c0-10.149-18.368-37.53-18.368-37.53S154.132,301.724,154.132,311.873z M257.871,28.536c-18.145,0-35.8,4.857-51.361,14.087   c-12.483-9.116-27.625-14.087-43.148-14.087c-32.014,0-59.623,20.282-69.419,50.121c-6.744-2.007-13.706-3.024-20.777-3.024   C32.819,75.633,0,108.452,0,148.799s32.825,73.166,73.166,73.166c11.123,0,22.039-2.545,32.003-7.419   c10.612,28.245,37.676,47.352,68.402,47.352c25.264,0,48.538-12.967,61.902-34.146c7.457,1.719,14.979,2.594,22.403,2.594   c55.636,0,100.9-45.275,100.9-100.911C358.772,73.795,313.508,28.536,257.871,28.536z" fill="#45B9D8"/>
</g>
<g>
</g>
<g>
</g>
<g>
</g>
<g>
</g>
<g>
</g>
<g>
</g>
<g>
</g>
<g>
</g>
<g>
</g>
<g>
</g>
<g>
</g>
<g>
</g>
<g>
</g>
<g>
</g>
<g>
</g>
</svg>
