<?xml version="1.0" encoding="iso-8859-1"?>
<!-- Generator: Adobe Illustrator 21.0.0, SVG Export Plug-In . SVG Version: 6.00 Build 0)  -->
<svg xmlns="http://www.w3.org/2000/svg" xmlns:xlink="http://www.w3.org/1999/xlink" version="1.1" id="Capa_1" x="0px" y="0px" viewBox="0 0 512 512" style="enable-background:new 0 0 512 512;" xml:space="preserve" width="512" height="512">
<g>
	<polygon style="fill:#596C76;" points="430.3,181 400.3,241 376,260.799 256,258.699 140.799,256.599 111.7,241 81.7,181    93.701,167.5 256,168.399 421,169.3  "/>
	<polygon style="fill:#3B4A51;" points="430.3,181 400.3,241 376,260.799 256,258.699 256,168.399 421,169.3  "/>
	<path style="fill:#EDF5FF;" d="M479.5,82.599L445.3,151L421,169.3l-165-0.901L93.701,167.5L66.7,151L32.5,82.599   c-3.6-7.2-0.599-16.199,6.901-20.099C41.499,61.599,43.9,61.3,46,61.3V61h420v0.3c2.1,0,4.501,0.298,6.599,1.199   C480.099,66.4,483.1,75.399,479.5,82.599z"/>
	<path style="fill:#D7E9FF;" d="M479.5,82.599L445.3,151L421,169.3l-165-0.901V61h210v0.3c2.1,0,4.501,0.298,6.599,1.199   C480.099,66.4,483.1,75.399,479.5,82.599z"/>
	<g>
		<g>
			<g>
				<polygon style="fill:#D7E9FF;" points="445.3,151 430.3,181 81.7,181 66.7,151     "/>
			</g>
		</g>
	</g>
	<path style="fill:#EDF5FF;" d="M391,271v15c0,24.899-20.099,45-45,45H166c-24.901,0-45-20.101-45-45v-15l19.799-14.401l115.201,2.1   l120,2.1L391,271z"/>
	<path style="fill:#D7E9FF;" d="M376,260.799L391,271v15c0,24.899-20.099,45-45,45h-90v-72.301L376,260.799z"/>
	<polygon style="fill:#9ABADB;" points="445.3,151 430.3,181 256,181 256,151  "/>
	<g>
		<path style="fill:#9DC1FF;" d="M372.7,463.7C341.499,494.9,300.099,512,256,512s-85.499-17.1-116.7-48.3c-5.7-6-5.7-15.3,0-21.301    c6-6,15.3-6,21.301,0C186.099,467.899,220,482,256,482s69.901-14.101,95.4-39.6c6-6,15.3-6,21.301,0    C378.401,448.4,378.401,457.7,372.7,463.7z"/>
	</g>
	<g>
		<path style="fill:#9DC1FF;" d="M330.099,421.099C310.3,441.2,283.9,452,256,452s-54.3-10.8-74.099-30.901c-6-5.7-6-15.3,0-21    c5.698-5.999,15.298-5.999,20.999,0C217,414.2,236.499,421.399,256,421.399s39-7.2,53.101-21.301c5.7-5.999,15.3-5.999,20.999,0    C336.099,405.799,336.099,415.399,330.099,421.099z"/>
	</g>
	<g>
		<path style="fill:#9DC1FF;" d="M287.8,378.8c-8.399,8.399-19.799,13.2-31.8,13.2s-23.401-4.801-31.8-13.2c-6-6-6-15.3,0-21.301    c6-5.7,15.3-5.7,21.301,0c2.699,2.701,6.599,4.2,10.499,4.2s7.8-1.5,10.499-4.2c6-5.7,15.3-5.7,21.301,0    C293.8,363.5,293.8,372.8,287.8,378.8z"/>
	</g>
	<g>
		<g>
			<g>
				<polygon style="fill:#D7E9FF;" points="400.3,241 391,259.6 391,271 121,271 121,259.6 111.7,241     "/>
			</g>
		</g>
	</g>
	<rect x="241" y="174.099" style="fill:#D7E9FF;" width="30" height="78.602"/>
	<path style="fill:#9ABADB;" d="M327.537,173.969l-25.761,77.285c-0.163,0.487-0.071,0.974-0.181,1.465h31.304l26.25-78.75H327.537z   "/>
	<path style="fill:#D7E9FF;" d="M184.463,173.969h-31.611l26.25,78.75h31.304c-0.11-0.491-0.018-0.978-0.181-1.465L184.463,173.969z   "/>
	<rect x="256" y="174.099" style="fill:#9ABADB;" width="15" height="78.602"/>
	<path style="fill:#6396ED;" d="M287.8,378.8c-8.399,8.399-19.799,13.2-31.8,13.2v-30.3c3.9,0,7.8-1.5,10.499-4.2   c6-5.7,15.3-5.7,21.301,0C293.8,363.5,293.8,372.8,287.8,378.8z"/>
	<path style="fill:#6396ED;" d="M330.099,421.099C310.3,441.2,283.9,452,256,452v-30.601c19.501,0,39-7.2,53.101-21.301   c5.7-5.999,15.3-5.999,20.999,0C336.099,405.799,336.099,415.399,330.099,421.099z"/>
	<path style="fill:#6396ED;" d="M372.7,442.4c5.7,6,5.7,15.3,0,21.301C341.499,494.9,300.099,512,256,512v-30   c36,0,69.901-14.101,95.4-39.6C357.4,436.399,366.7,436.399,372.7,442.4z"/>
	<polygon style="fill:#9ABADB;" points="256,241 400.3,241 391,259.6 391,271 256,271  "/>
	<g>
		<path style="fill:#697C86;" d="M497,0H15C6.599,0,0,6.599,0,15v31c0,24.899,21.099,45,46,45h420c24.901,0,46-20.101,46-45V15    C512,6.599,505.401,0,497,0z"/>
	</g>
	<path style="fill:#596C76;" d="M512,15v31c0,24.899-21.099,45-46,45H256V0h241C505.401,0,512,6.599,512,15z"/>
</g>















</svg>
