<?xml version="1.0" encoding="iso-8859-1"?>
<!-- Generator: Adobe Illustrator 19.0.0, SVG Export Plug-In . SVG Version: 6.00 Build 0)  -->
<svg version="1.1" id="Capa_1" xmlns="http://www.w3.org/2000/svg" xmlns:xlink="http://www.w3.org/1999/xlink" x="0px" y="0px"
	 viewBox="0 0 512.001 512.001" style="enable-background:new 0 0 512.001 512.001;" xml:space="preserve">
<path style="fill:#FFD33F;" d="M88.277,150.069l40.907,171.811c1.889,7.954,9.004,13.568,17.178,13.568h219.277
	c8.174,0,15.289-5.614,17.178-13.568l40.907-171.811H88.277z M184.674,300.138h-18.714c-4.114,0-7.68-2.834-8.607-6.841
	l-22.404-97.103c-1.095-4.749,1.863-9.49,6.612-10.584c0.644-0.15,1.298-0.23,1.951-0.23h33.695c4.626-0.018,8.474,3.54,8.828,8.148
	l7.468,97.103c0.38,4.864-3.257,9.11-8.121,9.481C185.142,300.129,184.912,300.138,184.674,300.138z M283.11,291.99
	c-0.353,4.608-4.202,8.166-8.828,8.148h-36.59c-4.626,0.018-8.474-3.54-8.828-8.148l-7.468-97.103
	c-0.38-4.864,3.257-9.11,8.121-9.481c0.238-0.018,0.468-0.026,0.706-0.026h51.553c4.873-0.018,8.836,3.928,8.854,8.801
	c0,0.238-0.009,0.468-0.026,0.706L283.11,291.99z M377.089,196.193l-22.404,97.103c-0.927,4.017-4.52,6.859-8.642,6.841h-18.714
	c-4.873,0.018-8.836-3.928-8.854-8.801c0-0.238,0.009-0.468,0.026-0.706l7.468-97.103c0.353-4.608,4.202-8.166,8.828-8.148h33.695
	c4.873,0,8.828,3.955,8.828,8.828C377.318,194.878,377.239,195.54,377.089,196.193z"/>
<g>
	<path style="fill:#EA3836;" d="M2.322,19.721L15.82,134.479c1.05,8.889,8.58,15.59,17.532,15.59H478.65
		c8.951,0,16.481-6.7,17.532-15.59l13.497-114.759c1.139-9.684-5.782-18.458-15.466-19.597C493.525,0.044,492.836,0,492.148,0
		H19.854C10.1,0,2.199,7.91,2.199,17.655C2.199,18.344,2.243,19.032,2.322,19.721z"/>
	<path style="fill:#EA3836;" d="M256.001,512c-42.099,0.115-82.494-16.614-112.172-46.468c-3.505-3.39-3.602-8.978-0.221-12.482
		c3.39-3.505,8.978-3.602,12.482-0.221c0.071,0.071,0.15,0.141,0.221,0.221c55.049,55.058,144.313,55.058,199.371,0.009l0.009-0.009
		c3.39-3.505,8.978-3.602,12.482-0.212c3.505,3.39,3.602,8.978,0.212,12.482c-0.071,0.071-0.141,0.141-0.212,0.212
		C338.495,495.386,298.1,512.115,256.001,512z"/>
	<path style="fill:#EA3836;" d="M256.001,474.553c-32.159,0.088-63.011-12.703-85.689-35.505c-3.505-3.39-3.602-8.978-0.221-12.482
		c3.39-3.505,8.978-3.602,12.482-0.221c0.071,0.071,0.15,0.141,0.221,0.221c40.457,40.369,105.958,40.369,146.414,0
		c3.39-3.505,8.978-3.602,12.482-0.212c3.505,3.39,3.602,8.978,0.212,12.482c-0.071,0.071-0.141,0.141-0.212,0.212
		C319.012,461.85,288.16,474.642,256.001,474.553z"/>
	<path style="fill:#EA3836;" d="M256.001,437.054c-22.21,0.044-43.52-8.775-59.207-24.488c-3.505-3.39-3.602-8.978-0.221-12.482
		c3.39-3.505,8.978-3.602,12.482-0.221c0.071,0.071,0.15,0.141,0.221,0.221c25.838,25.732,67.61,25.732,93.449,0
		c3.39-3.505,8.978-3.602,12.482-0.212c3.505,3.39,3.602,8.978,0.212,12.482c-0.071,0.071-0.141,0.141-0.212,0.212
		C299.521,428.279,278.211,437.098,256.001,437.054z"/>
	<path style="fill:#EA3836;" d="M256.001,399.36c-12.27,0.026-24.055-4.846-32.724-13.533c-3.39-3.505-3.293-9.092,0.221-12.482
		c3.425-3.302,8.845-3.302,12.262,0c11.185,11.158,29.299,11.158,40.483,0c3.505-3.39,9.092-3.293,12.482,0.212
		c3.302,3.425,3.302,8.845,0,12.27C280.047,394.514,268.271,399.386,256.001,399.36z"/>
</g>
<path style="fill:#D62327;" d="M492.148,0h-35.893c-63.506,77.047-151.49,130.013-249.3,150.069h271.687
	c8.951,0,16.49-6.7,17.54-15.59l13.497-114.759c1.139-9.684-5.782-18.458-15.466-19.597C493.525,0.044,492.836,0,492.148,0z"/>
<path style="fill:#FFAC3E;" d="M150.697,264.589l-15.784-68.396c-1.095-4.749,1.863-9.49,6.612-10.584
	c0.653-0.15,1.315-0.23,1.986-0.23h33.695c4.626-0.018,8.474,3.54,8.828,8.148l3.381,43.944
	c10.973-6.868,22.246-13.268,33.836-19.191l-1.766-23.393c-0.38-4.864,3.257-9.11,8.121-9.481c0.238-0.018,0.468-0.027,0.706-0.027
	h51.553c3.407,0.026,6.488,2.039,7.883,5.146c41.949-13.709,85.654-21.274,129.766-22.466l4.211-17.991H88.277l33.156,139.264
	C130.826,280.647,140.58,272.402,150.697,264.589z"/>
<g>
</g>
<g>
</g>
<g>
</g>
<g>
</g>
<g>
</g>
<g>
</g>
<g>
</g>
<g>
</g>
<g>
</g>
<g>
</g>
<g>
</g>
<g>
</g>
<g>
</g>
<g>
</g>
<g>
</g>
</svg>
