<?xml version="1.0" encoding="iso-8859-1"?>
<!-- Generator: Adobe Illustrator 16.0.0, SVG Export Plug-In . SVG Version: 6.00 Build 0)  -->
<!DOCTYPE svg PUBLIC "-//W3C//DTD SVG 1.1//EN" "http://www.w3.org/Graphics/SVG/1.1/DTD/svg11.dtd">
<svg xmlns="http://www.w3.org/2000/svg" xmlns:xlink="http://www.w3.org/1999/xlink" version="1.1" id="Capa_1" x="0px" y="0px" width="512px" height="512px" viewBox="0 0 67.624 67.625" style="enable-background:new 0 0 67.624 67.625;" xml:space="preserve">
<g>
	<path d="M67.624,17.664c0-7.136-5.805-12.94-12.938-12.94c-2.172,0-4.312,0.549-6.213,1.593c-1.56-1.031-3.418-1.593-5.283-1.593   c-3.93,0-7.418,2.372-8.861,5.965c-0.691-0.157-1.398-0.236-2.11-0.236c-5.275,0-9.566,4.292-9.566,9.566   c0,0.695,0.079,1.371,0.22,2.025c-2.592,1.624-4.601,4.123-5.6,7.165c-1.24-0.369-2.52-0.555-3.82-0.555   C6.035,28.654,0,34.688,0,42.106s6.035,13.452,13.452,13.452c2.045,0,4.053-0.469,5.884-1.365   c1.951,5.193,6.926,8.707,12.576,8.707c4.645,0,8.923-2.384,11.38-6.28c1.373,0.317,2.753,0.478,4.119,0.478   c10.229,0,18.552-8.322,18.552-18.551c0-3.963-1.26-7.632-3.386-10.65C65.639,25.526,67.624,21.826,67.624,17.664z" fill="#006DF0"/>
</g>
<g>
</g>
<g>
</g>
<g>
</g>
<g>
</g>
<g>
</g>
<g>
</g>
<g>
</g>
<g>
</g>
<g>
</g>
<g>
</g>
<g>
</g>
<g>
</g>
<g>
</g>
<g>
</g>
<g>
</g>
</svg>
