<?xml version="1.0" encoding="iso-8859-1"?>
<!-- Generator: Adobe Illustrator 16.0.0, SVG Export Plug-In . SVG Version: 6.00 Build 0)  -->
<!DOCTYPE svg PUBLIC "-//W3C//DTD SVG 1.1//EN" "http://www.w3.org/Graphics/SVG/1.1/DTD/svg11.dtd">
<svg xmlns="http://www.w3.org/2000/svg" xmlns:xlink="http://www.w3.org/1999/xlink" version="1.1" id="Capa_1" x="0px" y="0px" width="512px" height="512px" viewBox="0 0 65.617 65.617" style="enable-background:new 0 0 65.617 65.617;" xml:space="preserve">
<g>
	<path d="M18.191,26.225H3.961c-0.195,0-0.352,0.526-0.352,1.175c0,0.648,0.158,1.175,0.352,1.175h14.23   c0.194,0,0.352-0.526,0.352-1.175C18.543,26.75,18.385,26.225,18.191,26.225z M17.593,33.273H0.425C0.191,33.273,0,33.799,0,34.448   s0.192,1.177,0.425,1.177h17.168c0.234,0,0.424-0.527,0.424-1.177S17.826,33.273,17.593,33.273z M17.678,40.615H3.948   c-0.188,0-0.339,0.526-0.339,1.176c0,0.648,0.151,1.176,0.339,1.176h13.73c0.188,0,0.339-0.526,0.339-1.176   C18.017,41.139,17.866,40.615,17.678,40.615z M52.677,17.949c-2.174,0-4.312,0.551-6.213,1.595c-1.56-1.03-3.418-1.595-5.285-1.595   c-3.93,0-7.416,2.373-8.86,5.967c-0.691-0.157-1.398-0.236-2.109-0.236c-5.275,0-9.566,4.292-9.566,9.566   c0,5.274,4.291,9.565,9.566,9.565c1.206,0,2.418-0.235,3.542-0.685c1.549,3.342,4.947,5.541,8.672,5.541   c3.146,0,6.043-1.515,7.834-4.076c0.809,0.158,1.621,0.236,2.42,0.236c7.137,0,12.939-5.805,12.939-12.939   C65.617,23.755,59.812,17.949,52.677,17.949L52.677,17.949z M52.677,40.943c-0.896,0-1.808-0.128-2.713-0.382   c-0.127-0.035-0.258-0.056-0.39-0.056c-0.53,0-1.02,0.291-1.27,0.761c-1.17,2.169-3.426,3.517-5.885,3.517   c-3.059,0-5.715-2.07-6.469-5.037c-0.111-0.447-0.436-0.816-0.859-0.986c-0.17-0.067-0.354-0.104-0.537-0.104   c-0.275,0-0.543,0.078-0.774,0.227c-1.074,0.684-2.31,1.043-3.573,1.043c-3.684,0-6.68-2.996-6.68-6.68s2.996-6.681,6.68-6.681   c0.861,0,1.706,0.166,2.51,0.492c0.174,0.071,0.357,0.108,0.544,0.108c0.232,0,0.464-0.058,0.668-0.164   c0.375-0.196,0.646-0.548,0.74-0.962c0.691-3.064,3.367-5.205,6.508-5.205c1.561,0,3.078,0.551,4.275,1.549   c0.26,0.217,0.588,0.336,0.926,0.336c0.281,0,0.554-0.081,0.791-0.236c1.645-1.078,3.547-1.648,5.506-1.648   c5.543,0,10.055,4.511,10.055,10.054C62.73,36.435,58.22,40.943,52.677,40.943z" fill="#006DF0"/>
</g>
<g>
</g>
<g>
</g>
<g>
</g>
<g>
</g>
<g>
</g>
<g>
</g>
<g>
</g>
<g>
</g>
<g>
</g>
<g>
</g>
<g>
</g>
<g>
</g>
<g>
</g>
<g>
</g>
<g>
</g>
</svg>
