<?xml version="1.0" encoding="iso-8859-1"?>
<!-- Generator: Adobe Illustrator 16.0.0, SVG Export Plug-In . SVG Version: 6.00 Build 0)  -->
<!DOCTYPE svg PUBLIC "-//W3C//DTD SVG 1.1//EN" "http://www.w3.org/Graphics/SVG/1.1/DTD/svg11.dtd">
<svg xmlns="http://www.w3.org/2000/svg" xmlns:xlink="http://www.w3.org/1999/xlink" version="1.1" id="Capa_1" x="0px" y="0px" width="512px" height="512px" viewBox="0 0 65.961 65.961" style="enable-background:new 0 0 65.961 65.961;" xml:space="preserve">
<g>
	<path d="M47.412,2.476c-3.336,0-6.582,0.894-9.443,2.592c-2.295-1.676-5.08-2.592-7.934-2.592c-5.885,0-10.961,3.73-12.763,9.217   c-1.24-0.37-2.52-0.557-3.82-0.557C6.035,11.136,0,17.17,0,24.588c0,4.665,2.389,8.78,6.005,11.194   c2.134,1.424,4.694,2.258,7.446,2.258c2.045,0,4.052-0.469,5.884-1.363c0.106,0.281,0.226,0.561,0.349,0.832   c1.478,3.252,4.177,5.746,7.456,6.992c0.199,0.074,0.407,0.135,0.61,0.201l-3.433,5.861l3.818,2.643l-3.818,10.279l10.866-9.617   l-5.433-3.305l5.433-5.615l-0.002-0.006c2.556-0.644,4.865-2.011,6.646-3.961c0.533-0.582,1.035-1.199,1.465-1.88   c0.32,0.074,0.646,0.111,0.965,0.168c1.053,0.185,2.107,0.308,3.154,0.308c10.229,0,18.551-8.32,18.551-18.549   C65.963,10.799,57.64,2.476,47.412,2.476z M58.109,33.164c-2.855,2.521-6.597,4.066-10.697,4.066c-0.115,0-0.232-0.011-0.35-0.013   c-0.242-0.006-0.484-0.011-0.728-0.026c-0.933-0.064-1.867-0.224-2.802-0.455c-0.164-0.039-0.328-0.074-0.491-0.119   c-0.531-0.148-1.091,0.09-1.353,0.572c-0.38,0.702-0.848,1.338-1.354,1.932c-2.086,2.443-5.137,3.912-8.428,3.912   c-4.971,0-9.301-3.301-10.656-8.062c-0.03-0.104-0.066-0.207-0.094-0.312c-0.092-0.365-0.354-0.666-0.704-0.805   c-0.14-0.056-0.288-0.084-0.434-0.084c-0.221,0-0.439,0.062-0.63,0.184c-1.787,1.139-3.84,1.736-5.941,1.736   c-2.197,0-4.24-0.648-5.965-1.755c-2.425-1.553-4.208-4.019-4.859-6.912c-0.177-0.785-0.277-1.599-0.277-2.436   c0-6.123,4.98-11.103,11.102-11.103c1.433,0,2.837,0.275,4.174,0.818c0.319,0.13,0.68,0.114,0.987-0.047   c0.306-0.159,0.526-0.445,0.602-0.782c1.149-5.093,5.599-8.65,10.82-8.65c2.592,0,5.116,0.916,7.105,2.576   c0.396,0.331,0.966,0.363,1.396,0.08c2.646-1.737,5.716-2.656,8.873-2.656c8.937,0,16.203,7.269,16.203,16.204   C63.613,25.861,61.476,30.192,58.109,33.164z" fill="#006DF0"/>
</g>
<g>
</g>
<g>
</g>
<g>
</g>
<g>
</g>
<g>
</g>
<g>
</g>
<g>
</g>
<g>
</g>
<g>
</g>
<g>
</g>
<g>
</g>
<g>
</g>
<g>
</g>
<g>
</g>
<g>
</g>
</svg>
