<?xml version="1.0" encoding="iso-8859-1"?>
<!-- Generator: Adobe Illustrator 16.0.0, SVG Export Plug-In . SVG Version: 6.00 Build 0)  -->
<!DOCTYPE svg PUBLIC "-//W3C//DTD SVG 1.1//EN" "http://www.w3.org/Graphics/SVG/1.1/DTD/svg11.dtd">
<svg xmlns="http://www.w3.org/2000/svg" xmlns:xlink="http://www.w3.org/1999/xlink" version="1.1" id="Capa_1" x="0px" y="0px" width="512px" height="512px" viewBox="0 0 67.094 67.094" style="enable-background:new 0 0 67.094 67.094;" xml:space="preserve">
<g>
	<path d="M12.399,46.242c1.946,0,3.524,1.578,3.524,3.523c0,1.947-1.578,3.524-3.524,3.524c-1.946,0-3.524-1.577-3.524-3.524   C8.875,47.82,10.454,46.242,12.399,46.242z M19.449,60.047c1.946,0,3.524,1.577,3.524,3.523c0,1.945-1.578,3.523-3.524,3.523   c-1.946,0-3.524-1.578-3.524-3.523C15.924,61.624,17.502,60.047,19.449,60.047z M30.021,49.768c1.946,0,3.524,1.578,3.524,3.523   c0,1.946-1.578,3.523-3.524,3.523s-3.524-1.577-3.524-3.523C26.497,51.346,28.075,49.768,30.021,49.768z M47.837,46.242   c1.947,0,3.524,1.578,3.524,3.523c0,1.947-1.577,3.524-3.524,3.524c-1.945,0-3.523-1.577-3.523-3.524   C44.313,47.82,45.892,46.242,47.837,46.242z M40.788,60.047c1.946,0,3.524,1.577,3.524,3.523c0,1.945-1.578,3.523-3.524,3.523   c-1.945,0-3.523-1.578-3.523-3.523C37.265,61.624,38.843,60.047,40.788,60.047z M47.975,0c-3.334,0-6.58,0.894-9.44,2.592   C36.238,0.914,33.454,0,30.6,0c-5.886,0-10.961,3.73-12.763,9.216c-1.24-0.37-2.52-0.556-3.82-0.556   C6.6,8.66,0.565,14.694,0.565,22.112c0,7.417,6.034,13.452,13.451,13.452c2.045,0,4.052-0.469,5.884-1.365   c1.951,5.193,6.927,8.707,12.577,8.707c4.645,0,8.922-2.385,11.379-6.279c1.373,0.316,2.754,0.477,4.119,0.477   c10.229,0,18.553-8.32,18.553-18.55S58.204,0,47.975,0z M47.975,34.753c-1.443,0-2.914-0.206-4.369-0.612   c-0.528-0.15-1.09,0.09-1.351,0.572c-1.944,3.604-5.69,5.844-9.778,5.844c-5.083,0-9.502-3.441-10.75-8.374   c-0.092-0.366-0.354-0.664-0.704-0.803c-0.141-0.057-0.288-0.084-0.435-0.084c-0.22,0-0.439,0.061-0.629,0.185   c-1.786,1.134-3.84,1.736-5.941,1.736c-6.121,0-11.102-4.983-11.102-11.104c0-6.124,4.981-11.103,11.102-11.103   c1.433,0,2.838,0.275,4.174,0.819c0.319,0.129,0.68,0.112,0.986-0.048c0.307-0.159,0.527-0.445,0.603-0.783   c1.15-5.091,5.599-8.648,10.82-8.648c2.591,0,5.115,0.914,7.105,2.575c0.397,0.332,0.965,0.364,1.397,0.08   c2.646-1.737,5.713-2.655,8.871-2.655c8.935,0,16.202,7.268,16.202,16.202S56.909,34.753,47.975,34.753z" fill="#006DF0"/>
</g>
<g>
</g>
<g>
</g>
<g>
</g>
<g>
</g>
<g>
</g>
<g>
</g>
<g>
</g>
<g>
</g>
<g>
</g>
<g>
</g>
<g>
</g>
<g>
</g>
<g>
</g>
<g>
</g>
<g>
</g>
</svg>
