<?xml version="1.0" encoding="iso-8859-1"?>
<!-- Generator: Adobe Illustrator 16.0.0, SVG Export Plug-In . SVG Version: 6.00 Build 0)  -->
<!DOCTYPE svg PUBLIC "-//W3C//DTD SVG 1.1//EN" "http://www.w3.org/Graphics/SVG/1.1/DTD/svg11.dtd">
<svg xmlns="http://www.w3.org/2000/svg" xmlns:xlink="http://www.w3.org/1999/xlink" version="1.1" id="Capa_1" x="0px" y="0px" width="512px" height="512px" viewBox="0 0 73.222 73.221" style="enable-background:new 0 0 73.222 73.221;" xml:space="preserve">
<g>
	<path d="M73.221,24.585c0.018-0.501-0.291-0.957-0.763-1.133c-0.469-0.173-1.001-0.032-1.319,0.355   c-1.795,2.189-4.441,3.445-7.271,3.445c-5.183,0-9.397-4.216-9.397-9.398c0-2.61,1.053-5.036,2.963-6.836   c0.367-0.344,0.475-0.883,0.268-1.34c-0.208-0.458-0.684-0.734-1.186-0.684c-7.521,0.73-13.252,6.763-13.707,14.212   c-2.021-1.199-4.375-1.88-6.881-1.88c-0.119,0-0.238,0.01-0.357,0.015c-0.969,0.025-1.929,0.149-2.861,0.38   c-1.691,0.419-3.297,1.161-4.715,2.197c-2.861-1.698-6.107-2.591-9.443-2.591C8.322,21.328,0,29.65,0,39.877   C0,50.106,8.322,58.43,18.551,58.43c1.365,0,2.747-0.16,4.119-0.477c2.457,3.896,6.736,6.279,11.381,6.279   c5.649,0,10.625-3.514,12.576-8.709c1.831,0.896,3.842,1.365,5.885,1.365c7.418,0,13.45-6.033,13.45-13.451   c0-2-0.444-3.896-1.231-5.601C69.646,35.437,73.057,30.47,73.221,24.585z M52.508,54.542c-2.102,0-4.154-0.603-5.941-1.735   c-0.188-0.121-0.407-0.185-0.631-0.185c-0.146,0-0.293,0.026-0.435,0.084c-0.351,0.138-0.61,0.438-0.702,0.803   c-1.25,4.933-5.67,8.375-10.75,8.375c-4.089,0-7.836-2.237-9.779-5.844c-0.261-0.483-0.82-0.724-1.352-0.574   c-1.454,0.406-2.924,0.613-4.369,0.613c-8.934,0-16.201-7.269-16.201-16.201c0-8.935,7.268-16.203,16.201-16.203   c3.158,0,6.227,0.919,8.873,2.656c0.434,0.282,1,0.25,1.397-0.081c0.931-0.775,1.979-1.381,3.096-1.815   c0.819-0.319,1.675-0.537,2.552-0.654c0.482-0.064,0.969-0.106,1.459-0.106c2.63,0,5.065,0.905,6.981,2.454   c1.885,1.523,3.271,3.67,3.839,6.195c0.076,0.337,0.296,0.624,0.604,0.783c0.308,0.161,0.668,0.178,0.984,0.048   c0.113-0.047,0.229-0.081,0.348-0.122c1.23-0.457,2.519-0.697,3.828-0.697c3.56,0,6.726,1.688,8.756,4.303   c0.5,0.641,0.929,1.338,1.276,2.078c0.681,1.436,1.069,3.031,1.069,4.723C63.61,49.561,58.629,54.542,52.508,54.542z    M63.557,35.797c-2.054-2.957-5.258-5.054-8.965-5.633c-0.683-0.106-1.373-0.178-2.084-0.178c-0.123,0-0.244,0.009-0.365,0.013   c-1.176,0.032-2.332,0.209-3.455,0.542c-0.713-2.171-1.943-4.061-3.53-5.562c-0.019-0.273-0.041-0.544-0.041-0.821   c0-5.594,3.519-10.375,8.562-12.15c-1.017,1.756-1.557,3.754-1.557,5.846c0,6.479,5.27,11.748,11.747,11.748   c2.367,0,4.638-0.706,6.551-1.993C69.426,31.255,66.891,34.217,63.557,35.797z" fill="#006DF0"/>
</g>
<g>
</g>
<g>
</g>
<g>
</g>
<g>
</g>
<g>
</g>
<g>
</g>
<g>
</g>
<g>
</g>
<g>
</g>
<g>
</g>
<g>
</g>
<g>
</g>
<g>
</g>
<g>
</g>
<g>
</g>
</svg>
