<?xml version="1.0" encoding="iso-8859-1"?>
<!-- Generator: Adobe Illustrator 18.1.1, SVG Export Plug-In . SVG Version: 6.00 Build 0)  -->
<svg xmlns="http://www.w3.org/2000/svg" xmlns:xlink="http://www.w3.org/1999/xlink" version="1.1" id="Capa_1" x="0px" y="0px" viewBox="0 0 368.42 368.42" style="enable-background:new 0 0 368.42 368.42;" xml:space="preserve" width="512px" height="512px">
<g>
	<path d="M131.821,56.909c3.53,0,6.391-2.856,6.391-6.391V23.894c0-3.525-2.856-6.391-6.391-6.391   c-3.525,0-6.391,2.861-6.391,6.391v26.624C125.43,54.053,128.291,56.909,131.821,56.909z M195.415,89.396   c1.637,0,3.274-0.626,4.514-1.876l22.893-22.898c2.497-2.497,2.497-6.538,0-9.034c-2.491-2.497-6.532-2.497-9.029,0L190.9,78.486   c-2.497,2.497-2.497,6.543,0,9.034C192.14,88.766,193.778,89.396,195.415,89.396z M53.52,87.52c1.251,1.246,2.883,1.876,4.52,1.876   c1.637,0,3.269-0.626,4.52-1.876c2.497-2.491,2.497-6.538,0-9.034L39.662,55.587c-2.497-2.497-6.538-2.497-9.034,0   s-2.497,6.538,0,9.034C30.627,64.622,53.52,87.52,53.52,87.52z M41.533,145.12c0-3.519-2.861-6.391-6.391-6.391H6.391   c-3.525,0-6.391,2.866-6.391,6.391s2.861,6.391,6.391,6.391h28.751C38.672,151.511,41.533,148.644,41.533,145.12z M267.509,117.544   c-18.139,0-35.794,4.857-51.356,14.093c-7.713-5.629-16.437-9.671-25.645-11.944C178.613,92.198,148.535,76,118.213,82.641   c-34.418,7.544-56.283,41.68-48.739,76.092c0.522,2.371,1.229,4.645,2.007,6.88c-34.973,5.477-61.837,35.718-61.837,72.193   c0,40.352,32.825,73.166,73.166,73.166c11.123,0,22.039-2.546,32.003-7.403c10.612,28.24,37.671,47.347,68.402,47.347   c25.264,0,48.538-12.978,61.902-34.152c7.457,1.708,14.979,2.594,22.398,2.594c55.636,0,100.906-45.264,100.906-100.906   C368.415,162.807,323.146,117.544,267.509,117.544z M173.006,117.544c-32.009,0-59.618,20.282-69.419,50.132   c-6.108-1.822-12.401-2.785-18.787-2.959c-1.169-2.785-2.176-5.662-2.845-8.724c-6.043-27.522,11.455-54.831,38.982-60.869   c21.495-4.71,42.8,4.955,54.004,22.496C174.295,117.609,173.653,117.544,173.006,117.544z" fill="#006DF0"/>
</g>
<g>
</g>
<g>
</g>
<g>
</g>
<g>
</g>
<g>
</g>
<g>
</g>
<g>
</g>
<g>
</g>
<g>
</g>
<g>
</g>
<g>
</g>
<g>
</g>
<g>
</g>
<g>
</g>
<g>
</g>
</svg>
