<?xml version="1.0" encoding="iso-8859-1"?>
<!-- Generator: Adobe Illustrator 16.0.0, SVG Export Plug-In . SVG Version: 6.00 Build 0)  -->
<!DOCTYPE svg PUBLIC "-//W3C//DTD SVG 1.1//EN" "http://www.w3.org/Graphics/SVG/1.1/DTD/svg11.dtd">
<svg xmlns="http://www.w3.org/2000/svg" xmlns:xlink="http://www.w3.org/1999/xlink" version="1.1" id="Capa_1" x="0px" y="0px" width="512px" height="512px" viewBox="0 0 46.747 46.747" style="enable-background:new 0 0 46.747 46.747;" xml:space="preserve">
<g>
	<path d="M33.069,11.716c-1.201,0-2.359,0.184-3.451,0.519c-1.092-0.335-2.25-0.519-3.451-0.519c-6.479,0-11.748,5.27-11.748,11.749   s5.27,11.746,11.748,11.746c1.201,0,2.359-0.183,3.451-0.519c1.092,0.335,2.25,0.519,3.451,0.519   c6.478,0,11.748-5.269,11.748-11.746C44.817,16.986,39.545,11.716,33.069,11.716z M26.04,32.854   c-5.122-0.066-9.271-4.252-9.271-9.391c0-5.14,4.149-9.324,9.271-9.392c-2.858,2.145-4.719,5.55-4.719,9.392   S23.181,30.71,26.04,32.854z M26.165,7.245c0.648,0,1.177-0.526,1.177-1.175V1.175C27.341,0.526,26.817,0,26.165,0   c-0.647,0-1.174,0.526-1.174,1.175V6.07C24.991,6.719,25.517,7.245,26.165,7.245z M11.771,12.872   c0.229,0.23,0.53,0.344,0.831,0.344c0.3,0,0.601-0.114,0.831-0.344c0.458-0.459,0.458-1.202,0-1.661l-4.21-4.209   c-0.459-0.459-1.202-0.459-1.661,0c-0.459,0.458-0.459,1.202,0,1.662L11.771,12.872z M25.231,39.501   c-0.648,0-1.176,0.526-1.176,1.177v4.895c0,0.648,0.525,1.175,1.176,1.175c0.648,0,1.176-0.526,1.176-1.175v-4.895   C26.407,40.028,25.878,39.501,25.231,39.501z M12.707,33.874l-4.209,4.209c-0.459,0.459-0.459,1.203,0,1.661   c0.229,0.229,0.53,0.346,0.831,0.346c0.3,0,0.601-0.115,0.831-0.346l4.209-4.209c0.459-0.459,0.459-1.203,0-1.661   C13.909,33.416,13.166,33.416,12.707,33.874z M9.566,23.465c0-0.648-0.526-1.176-1.175-1.176H3.105   c-0.649,0-1.175,0.526-1.175,1.176c0,0.648,0.526,1.174,1.175,1.174h5.286C9.04,24.637,9.566,24.112,9.566,23.465z" fill="#006DF0"/>
</g>
<g>
</g>
<g>
</g>
<g>
</g>
<g>
</g>
<g>
</g>
<g>
</g>
<g>
</g>
<g>
</g>
<g>
</g>
<g>
</g>
<g>
</g>
<g>
</g>
<g>
</g>
<g>
</g>
<g>
</g>
</svg>
