<svg height="512pt" viewBox="0 -22 512.00049 512" width="512pt" xmlns="http://www.w3.org/2000/svg"><path d="m472.855469 193.359375c19.109375-22.15625 16.636719-55.605469-5.519531-74.714844-22.15625-19.105469-55.609376-16.636719-74.714844 5.519531-5.394532 6.257813-9.25 13.683594-11.261719 21.695313-16.964844-35.097656-59.167969-49.792969-94.265625-32.828125-35.09375 16.964844-49.789062 59.167969-32.824219 94.265625 3.886719 8.039063 9.261719 15.265625 15.839844 21.300781-29.816406 16.613282-40.523437 54.25-23.910156 84.070313 1.785156 3.203125 3.851562 6.242187 6.175781 9.078125-9.261719 3.449218-17.566406 9.066406-24.21875 16.375-27.847656-8.976563-57.699219 6.320312-66.675781 34.167968-1.6875 5.234376-2.550781 10.695313-2.554688 16.195313h-44.144531v52.976563h158.925781c29.824219-.019532 55.382813-21.339844 60.753907-50.679688 30.445312 15.257812 67.496093 2.945312 82.753906-27.5 3.539062-7.0625 5.6875-14.742188 6.332031-22.617188 43.558594 5.007813 82.929687-26.25 87.933594-69.808593 3.582031-31.199219-11.558594-61.574219-38.625-77.496094zm0 0" fill="#6b6b6b"/><path d="m0 379.65625h97.121094v70.632812h-97.121094zm0 0" fill="#c4beb8"/><g fill="#6b6b6b"><path d="m467.949219 35.316406c0 19.503906-15.8125 35.316406-35.320313 35.316406-19.503906 0-35.316406-15.8125-35.316406-35.316406s15.8125-35.316406 35.316406-35.316406c19.507813 0 35.320313 15.8125 35.320313 35.316406zm0 0"/><path d="m203.070312 264.875c0 14.628906-11.859374 26.488281-26.488281 26.488281-14.628906 0-26.484375-11.859375-26.484375-26.488281s11.855469-26.488281 26.484375-26.488281c14.628907 0 26.488281 11.859375 26.488281 26.488281zm0 0"/><path d="m485.605469 388.484375c0 9.753906-7.90625 17.660156-17.660157 17.660156-9.75 0-17.65625-7.90625-17.65625-17.660156 0-9.75 7.90625-17.65625 17.65625-17.65625 9.753907 0 17.660157 7.90625 17.660157 17.65625zm0 0"/></g><path d="m88.292969 361.996094h35.316406v105.953125h-35.316406zm0 0" fill="#d1d3d3"/></svg>