<?xml version="1.0" encoding="iso-8859-1"?>
<!-- Generator: Adobe Illustrator 16.0.0, SVG Export Plug-In . SVG Version: 6.00 Build 0)  -->
<!DOCTYPE svg PUBLIC "-//W3C//DTD SVG 1.1//EN" "http://www.w3.org/Graphics/SVG/1.1/DTD/svg11.dtd">
<svg xmlns="http://www.w3.org/2000/svg" xmlns:xlink="http://www.w3.org/1999/xlink" version="1.1" id="Capa_1" x="0px" y="0px" width="512px" height="512px" viewBox="0 0 47.612 47.612" style="enable-background:new 0 0 47.612 47.612;" xml:space="preserve">
<g>
	<path d="M14.626,23.917c-0.817-1.69-1.288-3.58-1.288-5.58c0-5.596,3.517-10.375,8.564-12.151   c-1.017,1.756-1.557,3.755-1.557,5.847c0,6.479,5.271,11.748,11.749,11.748c2.365,0,4.635-0.703,6.549-1.994   c-0.201,0.741-0.473,1.451-0.795,2.131h2.547c0.623-1.602,1-3.33,1.052-5.153c0.014-0.501-0.293-0.958-0.765-1.133   c-0.469-0.173-1-0.033-1.317,0.356c-1.796,2.188-4.445,3.444-7.271,3.444c-5.184,0-9.397-4.217-9.397-9.398   c0-2.608,1.053-5.036,2.963-6.836c0.364-0.344,0.471-0.883,0.265-1.341c-0.209-0.457-0.683-0.735-1.185-0.684   c-7.839,0.762-13.75,7.28-13.75,15.166c0,1.971,0.388,3.849,1.073,5.58h2.564V23.917z M1.121,30.055h45.37   c0.619,0,1.121-0.528,1.121-1.177s-0.5-1.174-1.121-1.174H1.121C0.502,27.705,0,28.23,0,28.878S0.502,30.055,1.121,30.055z    M46.491,34.753H1.121C0.501,34.753,0,35.279,0,35.929c0,0.646,0.501,1.175,1.121,1.175h45.37c0.618,0,1.121-0.527,1.121-1.175   C47.612,35.279,47.109,34.753,46.491,34.753z M46.491,42.096H1.121C0.501,42.096,0,42.621,0,43.271   c0,0.646,0.501,1.175,1.121,1.175h45.37c0.618,0,1.121-0.527,1.121-1.175C47.612,42.622,47.109,42.096,46.491,42.096z" fill="#006DF0"/>
</g>
<g>
</g>
<g>
</g>
<g>
</g>
<g>
</g>
<g>
</g>
<g>
</g>
<g>
</g>
<g>
</g>
<g>
</g>
<g>
</g>
<g>
</g>
<g>
</g>
<g>
</g>
<g>
</g>
<g>
</g>
</svg>
