<?xml version="1.0" encoding="iso-8859-1"?>
<!-- Generator: Adobe Illustrator 19.0.0, SVG Export Plug-In . SVG Version: 6.00 Build 0)  -->
<svg version="1.1" id="Capa_1" xmlns="http://www.w3.org/2000/svg" xmlns:xlink="http://www.w3.org/1999/xlink" x="0px" y="0px"
	 viewBox="0 0 480 480" style="enable-background:new 0 0 480 480;" xml:space="preserve">
<path style="fill:#808A86;" d="M399.998,239.992c0.004,88.366-71.626,160.004-159.992,160.008
	c-88.366,0.004-160.004-71.626-160.008-159.992C79.994,151.642,151.625,80.004,239.99,80c0.003,0,0.005,0,0.008,0
	c88.358-0.007,159.993,71.615,160,159.974C399.998,239.98,399.998,239.986,399.998,239.992z"/>
<circle style="fill:#6CC3E1;" cx="239.998" cy="240" r="72"/>
<path d="M239.998,320c44.183,0,80-35.817,80-80s-35.817-80-80-80s-80,35.817-80,80C160.049,284.162,195.836,319.949,239.998,320z
	 M239.998,176c35.346,0,64,28.654,64,64s-28.654,64-64,64s-64-28.654-64-64C176.038,204.671,204.669,176.04,239.998,176z"/>
<path d="M71.999,240c-0.122,92.662,74.896,167.878,167.558,168c34.534,0.045,68.241-10.567,96.52-30.388
	C287.718,430.131,212.454,463.996,127.998,464v16c154.395-0.008,280.004-107.672,280.004-239.992h-0.005l0.001-0.016
	C408.113,147.328,333.088,72.115,240.424,72c-34.526-0.043-68.224,10.566-96.499,30.38C192.283,49.862,267.544,16,351.998,16V0
	c-154.383,0-279.988,107.653-280,239.981l0,0.011L71.999,240L71.999,240z M239.998,88c83.947,0,152,68.053,152,152
	s-68.053,152-152,152s-152-68.053-152-152c0-0.002,0-0.003,0-0.005l0-0.014C88.101,156.079,156.096,88.092,239.998,88z"/>
<g>
</g>
<g>
</g>
<g>
</g>
<g>
</g>
<g>
</g>
<g>
</g>
<g>
</g>
<g>
</g>
<g>
</g>
<g>
</g>
<g>
</g>
<g>
</g>
<g>
</g>
<g>
</g>
<g>
</g>
</svg>
