<?xml version="1.0" encoding="iso-8859-1"?>
<!-- Generator: Adobe Illustrator 18.1.1, SVG Export Plug-In . SVG Version: 6.00 Build 0)  -->
<svg xmlns="http://www.w3.org/2000/svg" xmlns:xlink="http://www.w3.org/1999/xlink" version="1.1" id="Capa_1" x="0px" y="0px" viewBox="0 0 358.777 358.777" style="enable-background:new 0 0 358.777 358.777;" xml:space="preserve" width="512px" height="512px">
<g>
	<path d="M65.176,277.705c0,10.144,8.224,18.368,18.368,18.368s18.368-8.224,18.368-18.368   c0-10.144-18.368-37.535-18.368-37.535S65.176,267.561,65.176,277.705z M144.244,333.608c0,10.144,8.218,18.373,18.368,18.373   c10.144,0,18.368-8.229,18.368-18.373c0-10.144-18.368-37.535-18.368-37.535S144.244,323.464,144.244,333.608z M219.325,314.446   c0,10.144,8.229,18.368,18.373,18.368c10.138,0,18.368-8.224,18.368-18.368s-18.368-37.54-18.368-37.54   S219.325,304.302,219.325,314.446z M257.871,6.796c-18.134,0-35.8,4.863-51.361,14.098c-12.483-9.127-27.625-14.098-43.148-14.098   c-32.014,0-59.618,20.288-69.419,50.126c-6.744-2.007-13.706-3.024-20.777-3.024C32.819,53.898,0,86.718,0,127.065   c0,40.342,32.825,73.166,73.166,73.166c11.123,0,22.039-2.551,32.003-7.419c10.612,28.25,37.676,47.358,68.402,47.358   c25.264,0,48.538-12.972,61.902-34.152c7.468,1.719,14.979,2.594,22.403,2.594c55.636,0,100.9-45.264,100.9-100.906   S313.508,6.796,257.871,6.796z" fill="#006DF0"/>
</g>
<g>
</g>
<g>
</g>
<g>
</g>
<g>
</g>
<g>
</g>
<g>
</g>
<g>
</g>
<g>
</g>
<g>
</g>
<g>
</g>
<g>
</g>
<g>
</g>
<g>
</g>
<g>
</g>
<g>
</g>
</svg>
