<?xml version="1.0" encoding="iso-8859-1"?>
<!-- Generator: Adobe Illustrator 16.0.0, SVG Export Plug-In . SVG Version: 6.00 Build 0)  -->
<!DOCTYPE svg PUBLIC "-//W3C//DTD SVG 1.1//EN" "http://www.w3.org/Graphics/SVG/1.1/DTD/svg11.dtd">
<svg xmlns="http://www.w3.org/2000/svg" xmlns:xlink="http://www.w3.org/1999/xlink" version="1.1" id="Capa_1" x="0px" y="0px" width="512px" height="512px" viewBox="0 0 68.828 68.828" style="enable-background:new 0 0 68.828 68.828;" xml:space="preserve">
<g>
	<path d="M18.543,18.83c-0.001,0.649-0.158,1.174-0.352,1.174H3.961c-0.195,0-0.352-0.525-0.352-1.174   c0-0.649,0.156-1.175,0.352-1.175h14.23C18.385,17.655,18.543,18.18,18.543,18.83z M17.593,24.703H0.425   C0.19,24.703,0,25.229,0,25.878s0.191,1.175,0.425,1.175h17.168c0.234,0,0.424-0.525,0.424-1.175S17.827,24.703,17.593,24.703z    M17.678,32.046H3.948c-0.187,0-0.339,0.526-0.339,1.176c0,0.648,0.152,1.174,0.339,1.174h13.73c0.187,0,0.339-0.526,0.339-1.174   C18.017,32.571,17.865,32.046,17.678,32.046z M28.425,46.976c0,1.865,1.512,3.377,3.377,3.377c1.865,0,3.377-1.512,3.377-3.377   s-3.377-6.901-3.377-6.901S28.425,45.11,28.425,46.976z M42.963,57.255c0,1.864,1.512,3.377,3.377,3.377   c1.864,0,3.377-1.513,3.377-3.377c0-1.865-3.377-6.901-3.377-6.901S42.963,55.39,42.963,57.255z M55.887,8.196   c-2.172,0-4.312,0.551-6.213,1.595c-1.56-1.032-3.418-1.595-5.283-1.595c-3.933,0-7.416,2.372-8.861,5.965   c-0.69-0.155-1.397-0.236-2.109-0.236c-5.274,0-9.565,4.293-9.565,9.568c0,5.274,4.291,9.564,9.565,9.564   c1.205,0,2.417-0.235,3.542-0.686c1.549,3.343,4.947,5.542,8.672,5.542c3.146,0,6.041-1.514,7.832-4.073   c0.812,0.155,1.621,0.235,2.422,0.235c7.136,0,12.939-5.805,12.939-12.94C68.827,14.001,63.021,8.196,55.887,8.196z" fill="#006DF0"/>
</g>
<g>
</g>
<g>
</g>
<g>
</g>
<g>
</g>
<g>
</g>
<g>
</g>
<g>
</g>
<g>
</g>
<g>
</g>
<g>
</g>
<g>
</g>
<g>
</g>
<g>
</g>
<g>
</g>
<g>
</g>
</svg>
