<?xml version="1.0" encoding="iso-8859-1"?>
<!-- Generator: Adobe Illustrator 16.0.0, SVG Export Plug-In . SVG Version: 6.00 Build 0)  -->
<!DOCTYPE svg PUBLIC "-//W3C//DTD SVG 1.1//EN" "http://www.w3.org/Graphics/SVG/1.1/DTD/svg11.dtd">
<svg xmlns="http://www.w3.org/2000/svg" xmlns:xlink="http://www.w3.org/1999/xlink" version="1.1" id="Capa_1" x="0px" y="0px" width="512px" height="512px" viewBox="0 0 65.963 65.963" style="enable-background:new 0 0 65.963 65.963;" xml:space="preserve">
<g>
	<path d="M11.982,51.057c0,1.865,1.512,3.377,3.377,3.377c1.865,0,3.379-1.512,3.379-3.377s-3.379-6.901-3.379-6.901   S11.982,49.191,11.982,51.057z M26.519,61.334c0,1.866,1.512,3.379,3.377,3.379c1.867,0,3.379-1.513,3.379-3.379   c0-1.865-3.379-6.9-3.379-6.9S26.519,59.469,26.519,61.334z M40.322,57.811c0,1.865,1.514,3.378,3.379,3.378   s3.377-1.513,3.377-3.378c0-1.864-3.377-6.901-3.377-6.901S40.322,55.946,40.322,57.811z M47.41,1.25   c-3.334,0-6.58,0.892-9.441,2.59c-2.295-1.676-5.08-2.59-7.934-2.59c-5.887,0-10.961,3.729-12.764,9.215   c-1.24-0.369-2.519-0.557-3.82-0.557C6.035,9.908,0,15.942,0,23.36s6.035,13.452,13.451,13.452c2.045,0,4.053-0.469,5.885-1.364   c1.951,5.194,6.926,8.707,12.576,8.707c4.643,0,8.922-2.385,11.379-6.278c1.373,0.315,2.754,0.478,4.119,0.478   c10.23,0,18.553-8.324,18.553-18.553S57.641,1.25,47.41,1.25z M47.41,36.002c-1.443,0-2.914-0.207-4.369-0.615   c-0.53-0.147-1.09,0.093-1.352,0.574c-1.943,3.605-5.689,5.844-9.777,5.844c-5.082,0-9.502-3.442-10.75-8.375   c-0.092-0.363-0.355-0.664-0.705-0.802c-0.139-0.056-0.288-0.082-0.434-0.082c-0.22,0-0.439,0.062-0.63,0.185   c-1.785,1.135-3.839,1.734-5.941,1.734c-6.122,0-11.102-4.98-11.102-11.104s4.981-11.103,11.102-11.103   c1.434,0,2.838,0.275,4.174,0.819c0.32,0.131,0.681,0.113,0.986-0.047c0.307-0.16,0.528-0.447,0.604-0.783   c1.148-5.092,5.599-8.649,10.82-8.649c2.591,0,5.114,0.915,7.104,2.575c0.396,0.331,0.965,0.363,1.397,0.08   c2.646-1.737,5.713-2.655,8.871-2.655c8.933,0,16.202,7.267,16.202,16.201S56.344,36.002,47.41,36.002z" fill="#006DF0"/>
</g>
<g>
</g>
<g>
</g>
<g>
</g>
<g>
</g>
<g>
</g>
<g>
</g>
<g>
</g>
<g>
</g>
<g>
</g>
<g>
</g>
<g>
</g>
<g>
</g>
<g>
</g>
<g>
</g>
<g>
</g>
</svg>
