<?xml version="1.0" encoding="iso-8859-1"?>
<!-- Generator: Adobe Illustrator 16.0.0, SVG Export Plug-In . SVG Version: 6.00 Build 0)  -->
<!DOCTYPE svg PUBLIC "-//W3C//DTD SVG 1.1//EN" "http://www.w3.org/Graphics/SVG/1.1/DTD/svg11.dtd">
<svg xmlns="http://www.w3.org/2000/svg" xmlns:xlink="http://www.w3.org/1999/xlink" version="1.1" id="Capa_1" x="0px" y="0px" width="512px" height="512px" viewBox="0 0 65.962 65.961" style="enable-background:new 0 0 65.962 65.961;" xml:space="preserve">
<g>
	<path d="M47.411,11.528c-3.335,0-6.581,0.895-9.442,2.592c-2.296-1.677-5.08-2.592-7.934-2.592c-5.886,0-10.961,3.73-12.763,9.216   c-1.24-0.369-2.52-0.555-3.82-0.555C6.034,20.189,0,26.223,0,33.641c0,7.416,6.035,13.451,13.452,13.451   c2.045,0,4.053-0.471,5.884-1.365c1.951,5.195,6.927,8.707,12.576,8.707c4.645,0,8.924-2.383,11.381-6.279   c1.372,0.318,2.754,0.477,4.119,0.477c10.229,0,18.55-8.322,18.55-18.552C65.962,19.85,57.641,11.528,47.411,11.528z    M47.412,46.282c-1.443,0-2.914-0.206-4.369-0.614c-0.531-0.149-1.091,0.091-1.352,0.574c-1.944,3.604-5.69,5.845-9.779,5.845   c-5.081,0-9.501-3.445-10.749-8.375c-0.093-0.365-0.355-0.664-0.705-0.804c-0.14-0.058-0.287-0.084-0.434-0.084   c-0.22,0-0.439,0.062-0.63,0.185c-1.786,1.135-3.84,1.736-5.941,1.736c-6.122,0-11.102-4.982-11.102-11.104   c0-6.124,4.98-11.104,11.102-11.104c1.434,0,2.838,0.275,4.174,0.819c0.32,0.13,0.681,0.112,0.987-0.047   c0.306-0.159,0.526-0.446,0.602-0.783c1.15-5.092,5.599-8.649,10.82-8.649c2.591,0,5.114,0.915,7.106,2.576   c0.396,0.331,0.963,0.363,1.396,0.08c2.646-1.738,5.715-2.656,8.873-2.656c8.935,0,16.202,7.268,16.202,16.202   C63.614,39.014,56.346,46.282,47.412,46.282z" fill="#006DF0"/>
</g>
<g>
</g>
<g>
</g>
<g>
</g>
<g>
</g>
<g>
</g>
<g>
</g>
<g>
</g>
<g>
</g>
<g>
</g>
<g>
</g>
<g>
</g>
<g>
</g>
<g>
</g>
<g>
</g>
<g>
</g>
</svg>
