<svg height="511pt" viewBox="0 0 511.98404 511" width="511pt" xmlns="http://www.w3.org/2000/svg"><path d="m239.773438 432.085938h-191.820313v-30.785157l-47.953125-320.882812v-79.925781h287.730469l-.175781 82.308593-47.78125 318.5zm0 0" fill="#ecce93"/><path d="m191.820312 512.011719h-95.910156c-26.4375 0-47.957031-21.515625-47.957031-47.953125v-62.757813h191.820313v62.757813c0 26.4375-21.515626 47.953125-47.953126 47.953125zm0 0" fill="#f78659"/><path d="m79.925781 128.371094h127.878907v31.972656h-127.878907zm0 0" fill="#bf841b"/><path d="m207.804688 224.28125h-31.96875v-31.96875h31.96875zm-63.941407 0h-63.9375v-31.96875h63.9375zm0 0" fill="#bf841b"/><path d="m268.882812 207.289062-80.929687 80.933594 59.816406 59.816406zm0 0" fill="#e5ba6e"/><path d="m415.609375 384.132812v41.335938l-137.246094-137.246094 52.636719-52.640625-22.601562-22.601562-75.242188 75.242187 159.851562 159.851563h-41.335937v31.96875h95.910156v-95.910157zm0 0" fill="#48c8ef"/><path d="m285.523438 96.402344 2.03125-13.601563.046874-18.367187h-287.601562v15.984375l2.382812 15.984375zm0 0" fill="#e5ba6e"/><path d="m191.820312 480.042969h-95.910156c-26.4375 0-47.957031-21.515625-47.957031-47.957031v31.972656c0 26.4375 21.519531 47.953125 47.957031 47.953125h95.910156c26.4375 0 47.953126-21.515625 47.953126-47.953125v-31.972656c0 26.441406-21.515626 47.957031-47.953126 47.957031zm0 0" fill="#ef6b47"/><path d="m31.96875 32.460938h31.972656v31.972656h-31.972656zm0 0" fill="#fff"/><path d="m95.910156 32.460938h31.96875v31.972656h-31.96875zm0 0" fill="#fff"/><path d="m223.789062 32.460938h31.972657v31.972656h-31.972657zm0 0" fill="#fff"/><g fill="#ffcb5a"><path d="m359.664062 97.96875c5.210938-9.527344 12.691407-17.535156 21.851563-23.371094h-.015625l-25.035156-23.402344-21.835938 23.355469 25.035156 23.417969c.015626-.015625.015626 0 0 0zm0 0"/><path d="m413.46875 64.464844c5.546875-.191406 10.871094.574218 16.066406 1.742187l-1.152344-34.222656-31.953124 1.070313 1.148437 34.222656c5.070313-1.503906 10.34375-2.621094 15.890625-2.8125zm0 0"/><path d="m469.382812 94.292969c0-.015625 0-.015625 0 0l23.402344-25.050781-23.351562-21.835938-23.402344 25.035156h-.015625c9.542969 5.195313 17.535156 12.675782 23.367187 21.851563zm0 0"/><path d="m354.515625 146.417969c-1.503906-5.097657-2.621094-10.355469-2.8125-15.902344s.574219-10.871094 1.742187-16.066406l-34.222656 1.167969 1.070313 31.953124zm0 0"/><path d="m361.835938 162.46875-23.402344 25.046875 23.355468 21.835937 23.402344-25.03125h.015625c-9.542969-5.210937-17.535156-12.691406-23.371093-21.851562zm0 0"/><path d="m471.558594 158.777344c-5.210938 9.523437-12.691406 17.535156-21.851563 23.367187h.015625l25.03125 23.402344 21.835938-23.351563-25.03125-23.417968c-.015625.015625-.015625 0 0 0zm0 0"/><path d="m476.707031 110.324219c1.5 5.085937 2.621094 10.34375 2.796875 15.90625.191406 5.546875-.578125 10.871093-1.742187 16.066406l34.222656-1.152344-1.070313-31.953125zm0 0"/><path d="m417.753906 192.28125c-5.546875.191406-10.871094-.578125-16.066406-1.742188l1.152344 34.222657 31.953125-1.070313-1.152344-34.222656c-5.066406 1.515625-10.339844 2.621094-15.886719 2.8125zm0 0"/></g><path d="m463.566406 128.371094c0 26.484375-21.472656 47.957031-47.957031 47.957031s-47.953125-21.472656-47.953125-47.957031 21.46875-47.953125 47.953125-47.953125 47.957031 21.46875 47.957031 47.953125zm0 0" fill="#ff6853"/></svg>