<?xml version="1.0" encoding="iso-8859-1"?>
<!-- Generator: Adobe Illustrator 16.0.0, SVG Export Plug-In . SVG Version: 6.00 Build 0)  -->
<!DOCTYPE svg PUBLIC "-//W3C//DTD SVG 1.1//EN" "http://www.w3.org/Graphics/SVG/1.1/DTD/svg11.dtd">
<svg xmlns="http://www.w3.org/2000/svg" xmlns:xlink="http://www.w3.org/1999/xlink" version="1.1" id="Capa_1" x="0px" y="0px" width="512px" height="512px" viewBox="0 0 73.993 73.993" style="enable-background:new 0 0 73.993 73.993;" xml:space="preserve">
<g>
	<path d="M12.746,47.615c0-13.601,11.062-24.665,24.663-24.665c13.599,0,24.665,11.064,24.665,24.665   c0,1.363-1.106,2.465-2.47,2.465c-1.362,0-2.465-1.104-2.465-2.465c0-10.878-8.852-19.729-19.73-19.729   s-19.731,8.849-19.731,19.729c0,1.363-1.104,2.465-2.467,2.465C13.85,50.08,12.746,48.977,12.746,47.615z M37.409,18.499   c1.359,0,2.467-1.106,2.467-2.467V2.467C39.876,1.104,38.771,0,37.409,0c-1.363,0-2.465,1.102-2.465,2.467v13.565   C34.941,17.392,36.046,18.499,37.409,18.499z M13.837,27.403c0.964-0.964,0.964-2.526,0-3.487L4.213,14.29   c-0.964-0.962-2.526-0.962-3.487,0c-0.964,0.964-0.964,2.526,0,3.487l9.624,9.626c0.481,0.481,1.113,0.722,1.745,0.722   C12.725,28.125,13.356,27.884,13.837,27.403z M73.268,14.287c-0.964-0.962-2.521-0.962-3.484,0l-8.101,8.1   c-0.964,0.964-0.964,2.526,0,3.487c0.481,0.481,1.113,0.722,1.743,0.722c0.634,0,1.266-0.241,1.745-0.722l8.098-8.1   C74.231,16.813,74.231,15.253,73.268,14.287z M61.164,53.848H13.653c-1.36,0-2.468,1.103-2.468,2.468   c0,1.364,1.104,2.467,2.468,2.467h47.512c1.363,0,2.469-1.103,2.469-2.467C63.629,54.953,62.527,53.848,61.164,53.848z    M55.29,69.057H19.527c-1.363,0-2.468,1.103-2.468,2.47c0,1.36,1.104,2.467,2.468,2.467H55.29c1.357,0,2.467-1.104,2.467-2.467   C57.757,70.163,56.647,69.057,55.29,69.057z" fill="#006DF0"/>
</g>
<g>
</g>
<g>
</g>
<g>
</g>
<g>
</g>
<g>
</g>
<g>
</g>
<g>
</g>
<g>
</g>
<g>
</g>
<g>
</g>
<g>
</g>
<g>
</g>
<g>
</g>
<g>
</g>
<g>
</g>
</svg>
