<?xml version="1.0" encoding="iso-8859-1"?>
<!-- Generator: Adobe Illustrator 16.0.0, SVG Export Plug-In . SVG Version: 6.00 Build 0)  -->
<!DOCTYPE svg PUBLIC "-//W3C//DTD SVG 1.1//EN" "http://www.w3.org/Graphics/SVG/1.1/DTD/svg11.dtd">
<svg xmlns="http://www.w3.org/2000/svg" xmlns:xlink="http://www.w3.org/1999/xlink" version="1.1" id="Capa_1" x="0px" y="0px" width="512px" height="512px" viewBox="0 0 65.961 65.961" style="enable-background:new 0 0 65.961 65.961;" xml:space="preserve">
<g>
	<path d="M33.853,45.369l0.336-2.436c-0.741,0.113-1.491,0.189-2.259,0.189c-0.946,0-3.61-0.89-4.517-1.06l-0.376,2.687   l-3.252,5.377l3.817,2.645l-3.816,10.279l10.866-9.617l-5.434-3.305L33.853,45.369z M47.411,2.91c-3.336,0-6.582,0.894-9.442,2.592   c-2.296-1.678-5.081-2.592-7.935-2.592c-5.885,0-10.961,3.729-12.762,9.216c-1.24-0.37-2.521-0.556-3.821-0.556   C6.034,11.57,0,17.604,0,25.022c0,7.417,6.034,13.45,13.451,13.45c2.046,0,4.054-0.469,5.885-1.363   c0.989,2.634,2.757,4.83,4.995,6.355v-3.018c-1.504-1.412-2.634-3.241-3.169-5.355c-0.093-0.367-0.354-0.664-0.704-0.804   c-0.141-0.057-0.287-0.084-0.435-0.084c-0.22,0-0.439,0.062-0.63,0.185c-1.787,1.136-3.841,1.734-5.942,1.734   c-6.121,0-11.102-4.979-11.102-11.103s4.98-11.103,11.102-11.103c1.435,0,2.838,0.275,4.175,0.819   c0.318,0.129,0.68,0.112,0.986-0.048c0.306-0.159,0.525-0.446,0.603-0.783c1.149-5.093,5.599-8.649,10.819-8.649   c2.592,0,5.114,0.915,7.106,2.576c0.396,0.332,0.963,0.363,1.396,0.08c2.646-1.738,5.715-2.656,8.873-2.656   c8.936,0,16.201,7.268,16.201,16.203c0,8.933-7.268,16.201-16.201,16.201c-1.445,0-2.914-0.206-4.369-0.613   c-0.529-0.147-1.09,0.09-1.352,0.573c-1.199,2.224-3.09,3.904-5.318,4.882v2.512c2.826-0.987,5.283-2.885,6.92-5.479   c1.373,0.314,2.754,0.477,4.119,0.477c10.229,0,18.551-8.32,18.551-18.55C65.959,11.231,57.639,2.91,47.411,2.91z" fill="#006DF0"/>
</g>
<g>
</g>
<g>
</g>
<g>
</g>
<g>
</g>
<g>
</g>
<g>
</g>
<g>
</g>
<g>
</g>
<g>
</g>
<g>
</g>
<g>
</g>
<g>
</g>
<g>
</g>
<g>
</g>
<g>
</g>
</svg>
