<?xml version="1.0" encoding="iso-8859-1"?>
<!-- Generator: Adobe Illustrator 19.0.0, SVG Export Plug-In . SVG Version: 6.00 Build 0)  -->
<svg version="1.1" id="Capa_1" xmlns="http://www.w3.org/2000/svg" xmlns:xlink="http://www.w3.org/1999/xlink" x="0px" y="0px"
	 viewBox="0 0 480 480" style="enable-background:new 0 0 480 480;" xml:space="preserve">
<g>
	<path style="fill:#45B9D8;" d="M280,160H0v-16h280c35.346,0,64-28.654,64-64s-28.654-64-64-64V0c44.183,0,80,35.817,80,80
		S324.183,160,280,160z"/>
	<path style="fill:#45B9D8;" d="M327.086,312H0v-16h327.086C381.93,296,416,271.477,416,232c-0.23-35.519-29.168-64.149-64.688-64
		v-16c44.352-0.14,80.448,35.648,80.688,80C432,280.598,390.82,312,327.086,312L327.086,312z"/>
	<path style="fill:#45B9D8;" d="M376,480H0v-16h376c54.281,0,88-24.523,88-64c-0.04-35.329-28.671-63.96-64-64v-16
		c44.162,0.051,79.949,35.838,80,80C480,448.598,439.18,480,376,480z"/>
</g>
<g>
</g>
<g>
</g>
<g>
</g>
<g>
</g>
<g>
</g>
<g>
</g>
<g>
</g>
<g>
</g>
<g>
</g>
<g>
</g>
<g>
</g>
<g>
</g>
<g>
</g>
<g>
</g>
<g>
</g>
</svg>
