<?xml version="1.0" encoding="iso-8859-1"?>
<!-- Generator: Adobe Illustrator 18.1.1, SVG Export Plug-In . SVG Version: 6.00 Build 0)  -->
<svg xmlns="http://www.w3.org/2000/svg" xmlns:xlink="http://www.w3.org/1999/xlink" version="1.1" id="Capa_1" x="0px" y="0px" viewBox="0 0 374.354 374.354" style="enable-background:new 0 0 374.354 374.354;" xml:space="preserve" width="512px" height="512px">
<g>
	<path d="M100.851,102.412c0,3.53-0.859,6.391-1.915,6.391H21.539c-1.061,0-1.92-2.861-1.92-6.391   c0-3.53,0.854-6.391,1.92-6.391h77.398C99.986,96.021,100.851,98.877,100.851,102.412z M95.689,134.361H2.312   c-1.278,0-2.312,2.861-2.312,6.391c0,3.53,1.039,6.391,2.312,6.391h93.378c1.267,0,2.306-2.861,2.306-6.391   C97.996,137.217,96.957,134.361,95.689,134.361z M96.146,174.295H21.468c-1.017,0-1.844,2.861-1.844,6.391   c0,3.53,0.827,6.396,1.844,6.396h74.678c1.017,0,1.849-2.866,1.849-6.396C97.996,177.145,97.169,174.295,96.146,174.295z    M154.6,255.495c0,10.144,8.229,18.379,18.373,18.379c10.144,0,18.362-8.235,18.362-18.379c0-10.133-18.362-37.53-18.362-37.53   S154.6,245.356,154.6,255.495z M233.673,311.403c0,10.144,8.224,18.379,18.368,18.379c10.144,0,18.368-8.235,18.368-18.379   c0-10.144-18.368-37.53-18.368-37.53S233.673,301.259,233.673,311.403z M374.354,114.955c0,38.797-31.563,70.371-70.371,70.371   c-4.357,0-8.773-0.424-13.173-1.273c-9.741,13.924-25.493,22.159-42.61,22.159c-20.244,0-38.732-11.966-47.162-30.149   c-6.119,2.458-12.706,3.737-19.265,3.737c-28.686,0-52.025-23.344-52.025-52.036c0-28.686,23.339-52.03,52.025-52.03   c3.867,0,7.718,0.43,11.471,1.284c7.859-19.543,26.815-32.444,48.196-32.444c10.144,0,20.255,3.057,28.735,8.664   c10.345-5.678,21.979-8.664,33.793-8.664C342.77,44.573,374.344,76.147,374.354,114.955z M358.657,114.971   c0-30.16-24.541-54.69-54.69-54.69c-10.655,0-21,3.095-29.942,8.958c-1.289,0.843-2.779,1.284-4.308,1.284   c-1.838,0-3.622-0.647-5.037-1.828c-6.511-5.428-14.756-8.42-23.241-8.42c-17.084,0-31.65,11.64-35.408,28.305   c-0.511,2.257-1.974,4.161-4.025,5.227c-1.104,0.582-2.371,0.887-3.633,0.887c-1.023,0-2.007-0.19-2.953-0.571   c-4.378-1.784-8.974-2.681-13.657-2.681c-20.032,0-36.333,16.295-36.333,36.333s16.301,36.338,36.333,36.338   c6.87,0,13.592-1.958,19.434-5.684c1.251-0.805,2.714-1.229,4.204-1.229c1.012,0,1.991,0.196,2.921,0.566   c2.312,0.919,4.079,2.926,4.688,5.363c4.079,16.132,18.547,27.397,35.169,27.397c13.38,0,25.645-7.337,32.009-19.135   c1.371-2.54,4.025-4.128,6.913-4.128c0.718,0,1.43,0.103,2.121,0.299c4.917,1.376,9.877,2.078,14.745,2.078   C334.116,169.639,358.641,145.109,358.657,114.971z" fill="#006DF0"/>
</g>
<g>
</g>
<g>
</g>
<g>
</g>
<g>
</g>
<g>
</g>
<g>
</g>
<g>
</g>
<g>
</g>
<g>
</g>
<g>
</g>
<g>
</g>
<g>
</g>
<g>
</g>
<g>
</g>
<g>
</g>
</svg>
