<?xml version="1.0" encoding="iso-8859-1"?>
<!-- Generator: Adobe Illustrator 18.1.1, SVG Export Plug-In . SVG Version: 6.00 Build 0)  -->
<svg xmlns="http://www.w3.org/2000/svg" xmlns:xlink="http://www.w3.org/1999/xlink" version="1.1" id="Capa_1" x="0px" y="0px" viewBox="0 0 356.89 356.89" style="enable-background:new 0 0 356.89 356.89;" xml:space="preserve" width="512px" height="512px">
<g>
	<path d="M98.937,142.629H21.539c-1.055,0-1.915,2.861-1.915,6.391s0.865,6.391,1.915,6.391h77.398   c1.061,0,1.915-2.861,1.915-6.391S99.997,142.629,98.937,142.629z M95.684,180.974H2.306c-1.273,0-2.306,2.861-2.306,6.385   s1.039,6.396,2.306,6.396h93.378c1.278,0,2.306-2.872,2.306-6.396C97.99,183.83,96.957,180.974,95.684,180.974z M96.152,220.902   H21.473c-1.023,0-1.849,2.856-1.849,6.385c0,3.535,0.827,6.396,1.849,6.396h74.678c1.017,0,1.838-2.856,1.838-6.396   C97.99,223.763,97.169,220.902,96.152,220.902z M286.503,97.626c-11.814,0-23.448,2.997-33.793,8.675   c-8.474-5.608-18.591-8.675-28.735-8.675c-21.376,0-40.331,12.901-48.19,32.444c-3.753-0.843-7.604-1.284-11.476-1.284   c-28.686,0-52.025,23.35-52.025,52.036s23.339,52.025,52.025,52.025c6.56,0,13.146-1.278,19.265-3.731   c8.425,18.177,26.912,30.149,47.168,30.149c17.111,0,32.857-8.24,42.599-22.164c4.411,0.849,8.817,1.284,13.173,1.284   c38.813,0,70.376-31.574,70.376-70.381C356.895,129.2,325.321,97.626,286.503,97.626z" fill="#006DF0"/>
</g>
<g>
</g>
<g>
</g>
<g>
</g>
<g>
</g>
<g>
</g>
<g>
</g>
<g>
</g>
<g>
</g>
<g>
</g>
<g>
</g>
<g>
</g>
<g>
</g>
<g>
</g>
<g>
</g>
<g>
</g>
</svg>
